<svg width="24" height="24" viewBox="0 0 24 24" fill="none" xmlns="http://www.w3.org/2000/svg">
<g id="user-square 1">
<g id="Vector">
<path d="M15.0006 22.7498H9.00063C7.68063 22.7498 6.58063 22.6198 5.65063 22.3398C5.31063 22.2398 5.09063 21.9098 5.11063 21.5598C5.36063 18.5698 8.39063 16.2197 12.0006 16.2197C15.6106 16.2197 18.6306 18.5598 18.8906 21.5598C18.9206 21.9198 18.7006 22.2398 18.3506 22.3398C17.4206 22.6198 16.3206 22.7498 15.0006 22.7498ZM6.72063 21.0598C7.38063 21.1898 8.13063 21.2498 9.00063 21.2498H15.0006C15.8706 21.2498 16.6206 21.1898 17.2806 21.0598C16.7506 19.1398 14.5606 17.7197 12.0006 17.7197C9.44063 17.7197 7.25063 19.1398 6.72063 21.0598Z" fill="white"/>
<path d="M5.79478 21.861L5.79478 21.861L5.79172 21.8601C5.68699 21.8293 5.60462 21.7207 5.60957 21.5934C5.83669 18.9385 8.57437 16.7197 12.0006 16.7197C15.429 16.7197 18.1604 18.9321 18.3924 21.602C18.4023 21.7238 18.3334 21.8247 18.2132 21.859L18.2132 21.859L18.2065 21.861C17.3382 22.1224 16.2904 22.2498 15.0006 22.2498H9.00063C7.71082 22.2498 6.66302 22.1224 5.79478 21.861ZM6.23866 20.9268L6.09526 21.4462L6.62401 21.5504C7.32489 21.6884 8.10895 21.7498 9.00063 21.7498H15.0006C15.8923 21.7498 16.6764 21.6884 17.3772 21.5504L17.906 21.4462L17.7626 20.9268C17.1552 18.7264 14.7119 17.2197 12.0006 17.2197C9.28933 17.2197 6.84605 18.7264 6.23866 20.9268Z" stroke="black" stroke-opacity="0.2"/>
</g>
<g id="Vector_2">
<path d="M15 2H9C4 2 2 4 2 9V15C2 18.78 3.14 20.85 5.86 21.62C6.08 19.02 8.75 16.97 12 16.97C15.25 16.97 17.92 19.02 18.14 21.62C20.86 20.85 22 18.78 22 15V9C22 4 20 2 15 2ZM12 14.17C10.02 14.17 8.42 12.56 8.42 10.58C8.42 8.60002 10.02 7 12 7C13.98 7 15.58 8.60002 15.58 10.58C15.58 12.56 13.98 14.17 12 14.17Z" stroke="white" stroke-width="1.5" stroke-linecap="round" stroke-linejoin="round"/>
<path d="M15 2H9C4 2 2 4 2 9V15C2 18.78 3.14 20.85 5.86 21.62C6.08 19.02 8.75 16.97 12 16.97C15.25 16.97 17.92 19.02 18.14 21.62C20.86 20.85 22 18.78 22 15V9C22 4 20 2 15 2ZM12 14.17C10.02 14.17 8.42 12.56 8.42 10.58C8.42 8.60002 10.02 7 12 7C13.98 7 15.58 8.60002 15.58 10.58C15.58 12.56 13.98 14.17 12 14.17Z" stroke="black" stroke-opacity="0.2" stroke-width="1.5" stroke-linecap="round" stroke-linejoin="round"/>
</g>
<g id="Vector_3">
<path d="M11.9999 14.92C9.60992 14.92 7.66992 12.97 7.66992 10.58C7.66992 8.19002 9.60992 6.25 11.9999 6.25C14.3899 6.25 16.3299 8.19002 16.3299 10.58C16.3299 12.97 14.3899 14.92 11.9999 14.92ZM11.9999 7.75C10.4399 7.75 9.16992 9.02002 9.16992 10.58C9.16992 12.15 10.4399 13.42 11.9999 13.42C13.5599 13.42 14.8299 12.15 14.8299 10.58C14.8299 9.02002 13.5599 7.75 11.9999 7.75Z" fill="white"/>
<path d="M11.9999 14.42C9.88757 14.42 8.16992 12.6954 8.16992 10.58C8.16992 8.46616 9.88607 6.75 11.9999 6.75C14.1138 6.75 15.8299 8.46616 15.8299 10.58C15.8299 12.6954 14.1123 14.42 11.9999 14.42ZM11.9999 7.25C10.1638 7.25 8.66992 8.74388 8.66992 10.58C8.66992 12.425 10.1626 13.92 11.9999 13.92C13.8372 13.92 15.3299 12.425 15.3299 10.58C15.3299 8.74388 13.836 7.25 11.9999 7.25Z" stroke="black" stroke-opacity="0.2"/>
</g>
</g>
</svg>
